<?xml version="1.0" standalone="no"?>
<svg xmlns:xlink="http://www.w3.org/1999/xlink" id="wave" style="transform:rotate(180deg); transition: 0.3s" viewBox="0 0 1440 120" version="1.1" xmlns="http://www.w3.org/2000/svg"><defs><linearGradient id="sw-gradient-0" x1="0" x2="0" y1="1" y2="0"><stop stop-color="rgba(237.106, 20.833, 200.781, 1)" offset="0%"/><stop stop-color="rgba(11, 255, 246.735, 1)" offset="100%"/></linearGradient></defs><path style="transform:translate(0, 0px); opacity:1" fill="url(#sw-gradient-0)" d="M0,0L34.3,2C68.6,4,137,8,206,24C274.3,40,343,68,411,84C480,100,549,104,617,90C685.7,76,754,44,823,34C891.4,24,960,36,1029,34C1097.1,32,1166,16,1234,14C1302.9,12,1371,24,1440,26C1508.6,28,1577,20,1646,20C1714.3,20,1783,28,1851,32C1920,36,1989,36,2057,42C2125.7,48,2194,60,2263,72C2331.4,84,2400,96,2469,98C2537.1,100,2606,92,2674,86C2742.9,80,2811,76,2880,68C2948.6,60,3017,48,3086,48C3154.3,48,3223,60,3291,70C3360,80,3429,88,3497,82C3565.7,76,3634,56,3703,56C3771.4,56,3840,76,3909,86C3977.1,96,4046,96,4114,84C4182.9,72,4251,48,4320,44C4388.6,40,4457,56,4526,64C4594.3,72,4663,72,4731,66C4800,60,4869,48,4903,42L4937.1,36L4937.1,120L4902.9,120C4868.6,120,4800,120,4731,120C4662.9,120,4594,120,4526,120C4457.1,120,4389,120,4320,120C4251.4,120,4183,120,4114,120C4045.7,120,3977,120,3909,120C3840,120,3771,120,3703,120C3634.3,120,3566,120,3497,120C3428.6,120,3360,120,3291,120C3222.9,120,3154,120,3086,120C3017.1,120,2949,120,2880,120C2811.4,120,2743,120,2674,120C2605.7,120,2537,120,2469,120C2400,120,2331,120,2263,120C2194.3,120,2126,120,2057,120C1988.6,120,1920,120,1851,120C1782.9,120,1714,120,1646,120C1577.1,120,1509,120,1440,120C1371.4,120,1303,120,1234,120C1165.7,120,1097,120,1029,120C960,120,891,120,823,120C754.3,120,686,120,617,120C548.6,120,480,120,411,120C342.9,120,274,120,206,120C137.1,120,69,120,34,120L0,120Z"/></svg>